<svg width="64" height="64" viewBox="0 0 64 64" fill="none" xmlns="http://www.w3.org/2000/svg">
<circle cx="32" cy="32" r="32" fill="#062638"/>
<g clip-path="url(#clip0_377_28017)">
<path d="M26.9177 39.7339L24.9289 36.8613L27.3596 32.6628L31.1161 36.4193L26.9177 39.7339Z" fill="#15803D"/>
<path d="M24.9289 36.8613L22.7192 34.6516L24.9289 32.4419L26.4757 33.1048L27.1386 34.6516L24.9289 36.8613Z" fill="#16A34A"/>
<path d="M29.3483 36.8613L27.1386 39.071L24.9289 36.8613L20.5095 41.2807L22.7192 43.4904L24.9289 41.2807L27.1386 43.4904L31.558 39.071L30.8951 37.5242L29.3483 36.8613Z" fill="#16A34A"/>
<path d="M20.5095 41.2807L18.2998 39.071L16.0901 41.2807L18.2998 43.4904L20.5095 41.2807Z" fill="#16A34A"/>
<path d="M29.3483 45.7001L27.1386 43.4904L24.9289 45.7001L27.1386 47.9098L29.3483 45.7001Z" fill="#16A34A"/>
<path d="M18.2998 30.2322L22.7192 25.8127H27.1387L31.1161 28.4644L27.9341 31.337L21.6144 31.337L18.2998 30.2322Z" fill="#F9FAFB"/>
<path d="M21.6143 31.337L24.9289 32.4419L29.9008 31.8895L31.558 25.8128H27.1386L21.6143 31.337Z" fill="#15803D"/>
<path d="M38.1872 32.4419L44.8163 25.8128L45.9212 18.0788L38.1872 19.1836L24.929 32.4419L31.5581 39.071L33.7678 45.7001L38.1872 41.2807V32.4419Z" fill="#F9FAFB"/>
<path d="M40.3969 25.8128L38.1872 23.6031L35.9775 25.8128L38.1872 28.0225L40.3969 25.8128Z" fill="#15803D"/>
<path d="M38.1872 32.4419L31.5581 39.071L32.6629 42.3856L38.1872 36.8613V32.4419Z" fill="#4ADE80"/>
</g>
<defs>
<clipPath id="clip0_377_28017">
<rect width="40" height="40" fill="white" transform="translate(32 3.71567) rotate(45)"/>
</clipPath>
</defs>
</svg>
