<svg width="64" height="64" viewBox="0 0 64 64" fill="none" xmlns="http://www.w3.org/2000/svg">
<circle cx="32" cy="32" r="32" fill="#020F16"/>
<path d="M24.9688 36.4688H30.5938L37.1469 30.8438L36.2188 28.0312H30.5938L26.8531 30.8438L24.9688 36.4688Z" fill="white"/>
<path d="M30.5937 30.8438V28.0312H27.7812L26.8531 30.8438H30.5937Z" fill="white"/>
<path d="M37.1469 30.8438H33.4062V33.6562H30.5938V36.4688H39.0312L37.1469 30.8438Z" fill="#2DA833"/>
<path d="M44.211 21.9044L39.096 24.8575L40.5023 27.2932L45.6172 24.3401L44.211 21.9044Z" fill="white"/>
<path d="M38.0865 17.1906L35.274 22.062L37.7097 23.4682L40.5222 18.5968L38.0865 17.1906Z" fill="white"/>
<path d="M23 29.1562H17.375V31.9688H23V29.1562Z" fill="white"/>
<path d="M19.8067 21.8973L18.4005 24.3329L23.5154 27.2861L24.9217 24.8504L19.8067 21.8973Z" fill="white"/>
<path d="M16.5594 23.2781L14.1125 21.8437L15.5187 19.425L17.9375 20.8312L16.5594 23.2781Z" fill="white"/>
<path d="M47.4687 23.25L46.0344 20.8312L48.4812 19.425L49.8875 21.8437L47.4687 23.25Z" fill="white"/>
<path d="M25.9007 17.1874L23.465 18.5937L26.2775 23.4651L28.7132 22.0588L25.9007 17.1874Z" fill="white"/>
<path d="M46.625 29.1562H41V31.9688H46.625V29.1562Z" fill="white"/>
<path d="M16.5312 47.7188H22.1562L28.7094 42.0938L27.7812 39.2812H22.1562L18.4156 42.0938L16.5312 47.7188Z" fill="white"/>
<path d="M22.1562 42.0938V39.2812H19.3437L18.4156 42.0938H22.1562Z" fill="white"/>
<path d="M28.7094 42.0938H24.9688V44.9062H22.1562V47.7188H30.5938L28.7094 42.0938Z" fill="#2DA833"/>
<path d="M33.4062 47.7188H39.0312L45.5844 42.0938L44.6562 39.2812H39.0312L35.2906 42.0938L33.4062 47.7188Z" fill="white"/>
<path d="M39.0312 42.0938V39.2812H36.2187L35.2906 42.0938H39.0312Z" fill="white"/>
<path d="M45.5844 42.0938H41.8438V44.9062H39.0312V47.7188H47.4688L45.5844 42.0938Z" fill="#2DA833"/>
</svg>
