<svg width="24" height="24" viewBox="0 0 24 24" fill="none" xmlns="http://www.w3.org/2000/svg">
<path d="M0.370316 11.9998C0.370316 5.57793 5.57813 0.370117 12 0.370117C18.4219 0.370117 23.6297 5.57793 23.6297 11.9998C23.6297 18.4217 18.4219 23.6295 12 23.6295C5.57813 23.6295 0.370316 18.4217 0.370316 11.9998Z" fill="#062638"/>
<path d="M20.2219 3.77832C24.7641 8.32051 24.7641 15.6846 20.2219 20.2221C15.6797 24.7643 8.31562 24.7643 3.77812 20.2221L20.2219 3.77832Z" fill="#062638"/>
<path d="M23.0766 15.5486C23.1187 15.4174 23.1562 15.2814 23.1937 15.1455C23.1562 15.2814 23.1187 15.4174 23.0766 15.5486Z" fill="#062638"/>
<path d="M23.1938 15.1454L16.8938 8.84541L15.4594 10.2798L14.4656 9.28135L13.6359 10.111L8.76563 5.24072L8.46563 5.12354L6.59532 6.99385L8.85 9.24854L6.64219 11.4563L8.79844 13.6126L6.44063 15.9704L13.9406 23.461C18.2578 22.7345 21.7688 19.636 23.0766 15.5439C23.1188 15.4173 23.1563 15.2814 23.1938 15.1454Z" fill="#062638"/>
<path d="M17.9672 11.6811V15.9936H15.4687V11.9717C15.4687 10.9592 15.1078 10.2701 14.2031 10.2701C13.5141 10.2701 13.1016 10.7342 12.9187 11.1842C12.8531 11.3436 12.8344 11.5686 12.8344 11.7936V15.9936H10.3359C10.3359 15.9936 10.3687 9.17793 10.3359 8.47481H12.8344V9.53887C12.8297 9.54824 12.825 9.55762 12.8203 9.56231H12.8344V9.53887C13.1672 9.02793 13.7578 8.29668 15.0891 8.29668C16.7344 8.29668 17.9672 9.37012 17.9672 11.6811ZM7.72031 4.84668C6.86719 4.84668 6.30469 5.40918 6.30469 6.14512C6.30469 6.86699 6.84844 7.44356 7.6875 7.44356H7.70625C8.57812 7.44356 9.12188 6.86699 9.12188 6.14512C9.09844 5.40918 8.57344 4.84668 7.72031 4.84668ZM6.45 15.9936H8.95312V8.47481H6.45469V15.9936H6.45Z" fill="white"/>
</svg>
