<svg width="24" height="24" viewBox="0 0 24 24" fill="none" xmlns="http://www.w3.org/2000/svg">
<path d="M24 12C24 18.63 18.63 24 12 24C5.37 24 0 18.63 0 12C0 5.37 5.37 0 12 0C18.63 0 24 5.37 24 12Z" fill="#062638"/>
<path d="M9.8 17.4998C9.41 17.4998 9.48 17.3498 9.34 16.9798L8.2 13.2198L15.28 8.7998L16.11 9.0198L15.42 10.8998L9.8 17.4998Z" fill="#C8DAEA"/>
<path d="M9.8 17.5002C10.1 17.5002 10.23 17.3602 10.4 17.2002C10.66 16.9502 14 13.7002 14 13.7002L11.95 13.2002L10.05 14.4002L9.8 17.4002V17.5002Z" fill="#A9C9DD"/>
<path d="M10 14.44L14.84 18.01C15.39 18.31 15.79 18.16 15.93 17.5L17.9 8.22004C18.1 7.41004 17.59 7.05004 17.06 7.29004L5.5 11.75C4.71 12.07 4.72 12.51 5.36 12.7L8.33 13.63L15.2 9.30005C15.52 9.10004 15.82 9.21005 15.58 9.43005L10 14.44Z" fill="url(#paint0_linear_317_25258)"/>
<defs>
<linearGradient id="paint0_linear_317_25258" x1="12.8991" y1="12.3755" x2="15.3991" y2="16.3755" gradientUnits="userSpaceOnUse">
<stop stop-color="#EFF7FC"/>
<stop offset="1" stop-color="white"/>
</linearGradient>
</defs>
</svg>
