<svg width="24" height="24" viewBox="0 0 24 24" fill="none" xmlns="http://www.w3.org/2000/svg">
<g clip-path="url(#clip0_317_25255)">
<path d="M12 24C18.6275 24 24 18.6274 24 12C24 5.37258 18.6275 0 12 0C5.37263 0 4.57764e-05 5.37258 4.57764e-05 12C4.57764e-05 18.6274 5.37263 24 12 24Z" fill="#062638"/>
<path d="M19.6942 7.22664C19.1282 7.4778 18.5203 7.64759 17.8811 7.72391C18.5334 7.33327 19.0332 6.71424 19.2692 5.97749C18.6495 6.34555 17.9713 6.60467 17.264 6.74358C16.6885 6.13009 15.8678 5.74707 14.9597 5.74707C13.2169 5.74707 11.8034 7.15997 11.8034 8.90386C11.8034 9.15095 11.8312 9.39201 11.8847 9.62346C9.26107 9.4916 6.93503 8.23484 5.37808 6.32519C5.10622 6.79158 4.95061 7.33384 4.95061 7.91241C4.95061 9.00748 5.50799 9.97368 6.35491 10.5397C5.85355 10.5241 5.36318 10.3888 4.92481 10.145V10.1849C4.92481 11.7145 6.0128 12.99 7.45704 13.2801C7.19173 13.3527 6.91331 13.3907 6.62527 13.3907C6.42162 13.3907 6.22403 13.3714 6.03101 13.3351C6.43274 14.5889 7.59859 15.5015 8.97959 15.5273C7.89918 16.3742 6.53783 16.8791 5.05924 16.8791C4.80457 16.8791 4.55288 16.8639 4.30579 16.8341C5.70304 17.73 7.36206 18.2531 9.14486 18.2531C14.9511 18.2531 18.1266 13.4428 18.1266 9.27128C18.1266 9.13433 18.1236 8.9984 18.117 8.86295C18.7357 8.41545 19.2698 7.86137 19.6942 7.22664Z" fill="white"/>
</g>
<defs>
<clipPath id="clip0_317_25255">
<rect width="24" height="24" fill="white"/>
</clipPath>
</defs>
</svg>
