<svg width="64" height="64" viewBox="0 0 64 64" fill="none" xmlns="http://www.w3.org/2000/svg">
<circle cx="32" cy="32" r="32" fill="#020F16"/>
<path d="M27.4437 42.2375L32 48.2L36.5562 42.2375C35.15 41.6188 33.6312 41.2812 32 41.2812C30.3687 41.2812 28.85 41.6188 27.4437 42.2375Z" fill="white"/>
<path d="M36.5562 42.2375L32 46.7937L27.4437 42.2375C24.3219 43.6156 21.9031 46.3437 21.0312 49.7187H42.9688C42.0969 46.3437 39.6781 43.6156 36.5562 42.2375Z" fill="#2DA833"/>
<path d="M32 39.5938C35.1066 39.5938 37.625 37.0754 37.625 33.9688C37.625 30.8621 35.1066 28.3438 32 28.3438C28.8934 28.3438 26.375 30.8621 26.375 33.9688C26.375 37.0754 28.8934 39.5938 32 39.5938Z" fill="#2DA833"/>
<path d="M14.2812 37.1187H22.4375V34.925L19.0625 31.55C16.7281 32.5906 14.9563 34.6437 14.2812 37.1187Z" fill="white"/>
<path d="M22.4375 29.6375C24.7675 29.6375 26.6562 27.7487 26.6562 25.4188C26.6562 23.0888 24.7675 21.2 22.4375 21.2C20.1075 21.2 18.2188 23.0888 18.2188 25.4188C18.2188 27.7487 20.1075 29.6375 22.4375 29.6375Z" fill="white"/>
<path d="M49.7188 37.1187C49.0437 34.6156 47.2719 32.5906 44.9375 31.55L41.5625 34.925V37.1187H49.7188Z" fill="white"/>
<path d="M41.5625 29.6375C43.8925 29.6375 45.7812 27.7487 45.7812 25.4188C45.7812 23.0888 43.8925 21.2 41.5625 21.2C39.2325 21.2 37.3438 23.0888 37.3438 25.4188C37.3438 27.7487 39.2325 29.6375 41.5625 29.6375Z" fill="white"/>
</svg>
